# xmcd CD database file
#
# Track frame offsets:
#	150
#	11087
#	23725
#	35512
#	48577
#	63475
#	75132
#	89450
#	104307
#	120370
#	134987
#	147475
#	161970
#	177912
#	186880
#	200975
#	214912
#	228150
#	239625
#	251912
#
# Disc length: 3538 seconds
#
# Revision: 0
# Processed by: cddbd v1.5.1PL2 Copyright (c) Steve Scherf et al.
# Submitted via: CDex 1.51
#
DISCID=2b0dd014
DTITLE=Various Artist - More Songs Of The Wild West
DYEAR=1996
DGENRE=Country
TTITLE0=Roy Rogers/I'm an Old Cowhand
TTITLE1=Sons Of The Pioneers/One More Ride
TTITLE2=Gene Autry/Don't Fence Me In
TTITLE3=Tex Ritter/Singing In The Saddle
TTITLE4=Jimmie Rogers/Yodelling Cowboy
TTITLE5=Tennessee Ernie Ford/Tumbling Tumbleweeds
TTITLE6=Bob Willis and His Texis Playboys/Along The Navajo Trail
TTITLE7=Ken Maynnard/The Lone Stare Trail
TTITLE8=Girls Of The Golden West/I Want to Be A Real Cowboy Girl
TTITLE9=The Beverly Hillbillies/Ride Runnin' Roan
TTITLE10=John White/Whoopee Ti Yi Yo
TTITLE11=Montana Slim/Little Old Log Shack I Always Call My Home
TTITLE12=Harry 'Mac' Mclintock/The Old Chisholm Trail
TTITLE13=Tennessee Ernie Ford/The Prairie Schooner
TTITLE14=Sons Of The Pioneers/The Hills of Wyoming
TTITLE15=Jimmie Rogers/Cowhand's Last Ride
TTITLE16=Tex Ritter/Out ON The Lone Pairie
TTITLE17=Texas Ruby/Dim Narrow Trail
TTITLE18=Roy Rogers/A Gay Ranchero
TTITLE19=Gene Autry/I'll Go Ridin' Down That Old Texas Trail
EXTD=YEAR: 1996
EXTT0=
EXTT1=
EXTT2=
EXTT3=
EXTT4=
EXTT5=
EXTT6=
EXTT7=
EXTT8=
EXTT9=
EXTT10=
EXTT11=
EXTT12=
EXTT13=
EXTT14=
EXTT15=
EXTT16=
EXTT17=
EXTT18=
EXTT19=
PLAYORDER=
